<?xml version="1.0" standalone="no"?>
<!DOCTYPE svg PUBLIC "-//W3C//DTD SVG 20010904//EN"
 "http://www.w3.org/TR/2001/REC-SVG-20010904/DTD/svg10.dtd">
<svg version="1.0" xmlns="http://www.w3.org/2000/svg"
 width="512.000000pt" height="512.000000pt" viewBox="0 0 512.000000 512.000000"
 preserveAspectRatio="xMidYMid meet">
<metadata>
Created by potrace 1.14, written by Peter Selinger 2001-2017
</metadata>
<g transform="translate(0.000000,512.000000) scale(0.100000,-0.100000)"
fill="#000000" stroke="none">
<path d="M1075 5113 c-11 -2 -56 -11 -100 -19 -91 -18 -221 -61 -297 -99 -152
-76 -335 -227 -432 -357 -118 -158 -206 -369 -233 -558 -4 -30 -8 -721 -8
-1535 0 -1641 -4 -1532 65 -1732 29 -83 98 -225 112 -231 5 -2 8 -8 8 -13 0
-21 113 -160 192 -235 179 -169 375 -267 638 -318 64 -13 293 -15 1565 -13
1642 3 1523 -1 1715 64 341 116 615 384 745 729 14 36 27 76 29 88 2 11 9 39
14 61 6 22 14 60 19 85 10 59 10 2989 0 3055 -51 321 -231 615 -492 806 -76
55 -239 138 -330 167 -187 60 -72 56 -1700 58 -820 1 -1499 0 -1510 -3z m1483
-830 l2 -522 600 0 600 0 0 92 c1 51 2 285 3 522 l2 430 83 0 c287 0 505 -83
687 -263 65 -63 88 -93 141 -177 51 -82 99 -213 115 -315 11 -72 19 -255 11
-277 -3 -9 -129 -12 -510 -12 -279 0 -512 0 -519 -1 -9 0 -12 -141 -12 -600
l-1 -600 522 -2 522 -3 0 -598 1 -597 -60 0 c-33 0 -268 -1 -522 -1 l-462 0 0
-516 c0 -283 -3 -518 -6 -522 -4 -3 -274 -6 -601 -6 l-594 0 0 522 0 522 -600
0 -600 0 0 -67 c-1 -37 -1 -272 -1 -522 l0 -456 -109 2 c-196 4 -319 34 -467
114 -83 45 -135 83 -206 154 -48 49 -127 147 -127 159 0 3 -13 28 -29 55 -66
113 -101 261 -104 441 l-2 116 505 2 c278 1 513 2 522 3 16 0 17 41 17 600 l0
600 -522 2 -522 3 0 597 0 598 103 0 c133 1 816 1 886 0 l55 0 0 -562 c0 -310
0 -580 1 -600 l0 -38 600 0 600 0 0 600 0 600 -27 0 c-16 1 -286 2 -601 3
l-573 2 0 495 c0 272 1 506 1 520 l0 25 597 0 598 -1 3 -521z"/>
<path d="M2560 1960 l0 -600 53 0 c317 -3 1141 0 1144 3 3 4 6 767 3 1120 l0
77 -600 0 -600 0 0 -600z"/>
</g>
</svg>
